<svg id="visual" viewBox="0 0 900 600" width="900" height="600" xmlns="http://www.w3.org/2000/svg" xmlns:xlink="http://www.w3.org/1999/xlink" version="1.1"><rect x="0" y="0" width="900" height="600" fill="#001220"></rect><defs><linearGradient id="grad1_0" x1="33.3%" y1="0%" x2="100%" y2="100%"><stop offset="20%" stop-color="#001220" stop-opacity="1"></stop><stop offset="80%" stop-color="#001220" stop-opacity="1"></stop></linearGradient></defs><defs><linearGradient id="grad2_0" x1="0%" y1="0%" x2="66.7%" y2="100%"><stop offset="20%" stop-color="#001220" stop-opacity="1"></stop><stop offset="80%" stop-color="#001220" stop-opacity="1"></stop></linearGradient></defs><g transform="translate(900, 0)"><path d="M0 378.6C-49.9 374 -99.8 369.4 -144.9 349.8C-189.9 330.1 -230.1 295.4 -256 256C-281.8 216.5 -293.3 172.4 -311.3 129C-329.4 85.5 -354 42.8 -378.6 0L0 0Z" fill="#FBAE3C"></path></g><g transform="translate(0, 600)"><path d="M0 -378.6C33.3 -335.2 66.7 -291.7 116 -279.9C165.2 -268.1 230.5 -287.9 267.7 -267.7C304.9 -247.5 314.2 -187.1 328 -135.9C341.8 -84.6 360.2 -42.3 378.6 0L0 0Z" fill="#FBAE3C"></path></g></svg>